<?xml version="1.0" encoding="UTF-8" standalone="no"?>
<!DOCTYPE svg PUBLIC "-//W3C//DTD SVG 1.1//EN"
 "http://www.w3.org/Graphics/SVG/1.1/DTD/svg11.dtd">
<!-- Generated by graphviz version 2.40.1 (20161225.0304)
 -->
<!-- Title: gtest_trsv Pages: 1 -->
<svg width="1220pt" height="348pt"
 viewBox="0.00 0.00 1220.45 348.04" xmlns="http://www.w3.org/2000/svg" xmlns:xlink="http://www.w3.org/1999/xlink">
<g id="graph0" class="graph" transform="scale(1 1) rotate(0) translate(4 344.0449)">
<title>gtest_trsv</title>
<polygon fill="#ffffff" stroke="transparent" points="-4,4 -4,-344.0449 1216.4504,-344.0449 1216.4504,4 -4,4"/>
<!-- node137 -->
<g id="node1" class="node">
<title>node137</title>
<polygon fill="none" stroke="#000000" points="671.5273,-304.0943 674.0264,-304.1928 676.4997,-304.3403 678.937,-304.5363 681.3284,-304.7803 683.6645,-305.0716 685.936,-305.4094 688.1339,-305.7928 690.2501,-306.2208 692.2766,-306.6922 694.2061,-307.2056 696.032,-307.7597 697.748,-308.3529 699.3489,-308.9837 700.8298,-309.6503 702.1867,-310.3509 703.4162,-311.0835 704.5157,-311.8461 705.4833,-312.6367 706.3177,-313.4531 707.0184,-314.2931 707.5855,-315.1543 708.0198,-316.0344 708.3227,-316.9309 708.4962,-317.8415 708.5429,-318.7636 708.4658,-319.6947 708.2685,-320.6322 707.9549,-321.5736 707.5293,-322.5163 706.9965,-323.4577 706.3614,-324.3952 705.6291,-325.3263 704.8049,-326.2484 703.8943,-327.159 702.9029,-328.0555 701.8361,-328.9356 700.6995,-329.7968 699.4986,-330.6367 698.2387,-331.4531 696.9249,-332.2438 695.5624,-333.0064 694.156,-333.739 692.7101,-334.4396 691.2292,-335.1062 689.7173,-335.7369 688.1782,-336.3302 686.6154,-336.8843 685.032,-337.3977 683.431,-337.8691 681.8151,-338.2971 680.1866,-338.6805 678.5476,-339.0183 676.9001,-339.3096 675.2456,-339.5536 673.5858,-339.7496 671.922,-339.8971 670.2554,-339.9956 668.5872,-340.0449 666.9184,-340.0449 665.2501,-339.9956 663.5835,-339.8971 661.9197,-339.7496 660.2599,-339.5536 658.6055,-339.3096 656.9579,-339.0183 655.3189,-338.6805 653.6904,-338.2971 652.0745,-337.8691 650.4735,-337.3977 648.8902,-336.8843 647.3273,-336.3302 645.7882,-335.7369 644.2763,-335.1062 642.7954,-334.4396 641.3496,-333.739 639.9431,-333.0064 638.5806,-332.2438 637.2669,-331.4531 636.0069,-330.6367 634.806,-329.7968 633.6694,-328.9356 632.6027,-328.0555 631.6112,-327.159 630.7007,-326.2484 629.8765,-325.3263 629.1441,-324.3952 628.509,-323.4577 627.9762,-322.5163 627.5506,-321.5736 627.237,-320.6322 627.0397,-319.6947 626.9626,-318.7636 627.0093,-317.8415 627.1829,-316.9309 627.4858,-316.0344 627.9201,-315.1543 628.4872,-314.2931 629.1878,-313.4531 630.0222,-312.6367 630.9898,-311.8461 632.0893,-311.0835 633.3188,-310.3509 634.6757,-309.6503 636.1566,-308.9837 637.7575,-308.3529 639.4736,-307.7597 641.2994,-307.2056 643.2289,-306.6922 645.2554,-306.2208 647.3716,-305.7928 649.5696,-305.4094 651.841,-305.0716 654.1771,-304.7803 656.5686,-304.5363 659.0059,-304.3403 661.4791,-304.1928 663.9782,-304.0943 666.4928,-304.0449 669.0127,-304.0449 671.5273,-304.0943"/>
<text text-anchor="middle" x="667.7528" y="-318.9449" font-family="Times,serif" font-size="12.00" fill="#000000">gtest_trsv</text>
</g>
<!-- node1 -->
<g id="node2" class="node">
<title>node1</title>
<polygon fill="none" stroke="#000000" points="501.2585,-238.0171 451.6428,-253.2453 250.7528,-260.0225 49.8627,-253.2453 .247,-238.0171 139.2672,-225.805 362.2383,-225.805 501.2585,-238.0171"/>
<text text-anchor="middle" x="250.7528" y="-238.9225" font-family="Times,serif" font-size="12.00" fill="#000000">/home/jenkins/workspace/xxx/build/openblas_binary_file/lib/libopenblas.a</text>
</g>
<!-- node137&#45;&gt;node1 -->
<g id="edge1" class="edge">
<title>node137&#45;&gt;node1</title>
<path fill="none" stroke="#000000" stroke-dasharray="1,5" d="M628.1465,-314.4445C562.5994,-301.866 429.9526,-276.411 340.7053,-259.2844"/>
<polygon fill="#000000" stroke="#000000" points="341.3376,-255.842 330.8571,-257.3945 340.0183,-262.7165 341.3376,-255.842"/>
</g>
<!-- node3 -->
<g id="node3" class="node">
<title>node3</title>
<polygon fill="none" stroke="#000000" points="556.7528,-154.5442 556.7528,-169.4558 540.9365,-180 518.569,-180 502.7528,-169.4558 502.7528,-154.5442 518.569,-144 540.9365,-144 556.7528,-154.5442"/>
<text text-anchor="middle" x="529.7528" y="-158.9" font-family="Times,serif" font-size="12.00" fill="#000000">gtest</text>
</g>
<!-- node137&#45;&gt;node3 -->
<g id="edge2" class="edge">
<title>node137&#45;&gt;node3</title>
<path fill="none" stroke="#000000" stroke-dasharray="1,5" d="M628.3217,-314.1949C601.7734,-306.8172 568.1833,-293.027 548.7528,-268.0449 531.6031,-245.9955 527.9968,-213.5812 527.9685,-190.3999"/>
<polygon fill="#000000" stroke="#000000" points="531.4728,-190.2305 528.1847,-180.1588 524.4743,-190.0827 531.4728,-190.2305"/>
</g>
<!-- node6 -->
<g id="node6" class="node">
<title>node6</title>
<polygon fill="none" stroke="#000000" points="647.8713,-234.5666 647.8713,-249.4783 621.4415,-260.0225 584.0641,-260.0225 557.6343,-249.4783 557.6343,-234.5666 584.0641,-224.0225 621.4415,-224.0225 647.8713,-234.5666"/>
<text text-anchor="middle" x="602.7528" y="-238.9225" font-family="Times,serif" font-size="12.00" fill="#000000">gtest_main</text>
</g>
<!-- node137&#45;&gt;node6 -->
<g id="edge5" class="edge">
<title>node137&#45;&gt;node6</title>
<path fill="none" stroke="#000000" stroke-dasharray="1,5" d="M653.6487,-304.6813C644.9723,-293.9996 633.6877,-280.107 623.9497,-268.1183"/>
<polygon fill="#000000" stroke="#000000" points="626.5277,-265.7408 617.5061,-260.1855 621.0943,-270.1542 626.5277,-265.7408"/>
</g>
<!-- node7 -->
<g id="node7" class="node">
<title>node7</title>
<polygon fill="none" stroke="#000000" points="801.9883,-231.2343 801.9883,-252.8107 762.0168,-268.0674 705.4887,-268.0674 665.5173,-252.8107 665.5173,-231.2343 705.4887,-215.9775 762.0168,-215.9775 801.9883,-231.2343"/>
<text text-anchor="middle" x="733.7528" y="-245.4225" font-family="Times,serif" font-size="12.00" fill="#000000">openblas_static</text>
<text text-anchor="middle" x="733.7528" y="-232.4225" font-family="Times,serif" font-size="12.00" fill="#000000">(openblas)</text>
</g>
<!-- node137&#45;&gt;node7 -->
<g id="edge8" class="edge">
<title>node137&#45;&gt;node7</title>
<path fill="none" stroke="#000000" d="M682.0738,-304.6813C689.0141,-296.2664 697.598,-285.8587 705.763,-275.959"/>
<polygon fill="#000000" stroke="#000000" points="708.5192,-278.118 712.1819,-268.1764 703.1189,-273.664 708.5192,-278.118"/>
</g>
<!-- node13 -->
<g id="node13" class="node">
<title>node13</title>
<polygon fill="none" stroke="#000000" points="891.3108,-238.0171 884.2681,-253.2453 855.7528,-260.0225 827.2374,-253.2453 820.1947,-238.0171 839.928,-225.805 871.5776,-225.805 891.3108,-238.0171"/>
<text text-anchor="middle" x="855.7528" y="-238.9225" font-family="Times,serif" font-size="12.00" fill="#000000">pthread</text>
</g>
<!-- node137&#45;&gt;node13 -->
<g id="edge15" class="edge">
<title>node137&#45;&gt;node13</title>
<path fill="none" stroke="#000000" stroke-dasharray="1,5" d="M702.7943,-310.6075C732.1566,-300.6011 774.9034,-285.0397 810.7528,-268.0449 815.7476,-265.6771 820.9283,-262.9527 825.92,-260.1778"/>
<polygon fill="#000000" stroke="#000000" points="827.6821,-263.2021 834.6201,-255.1948 824.203,-257.1278 827.6821,-263.2021"/>
</g>
<!-- node14 -->
<g id="node14" class="node">
<title>node14</title>
<polygon fill="none" stroke="#000000" points="967.7528,-234.5666 967.7528,-249.4783 951.9365,-260.0225 929.569,-260.0225 913.7528,-249.4783 913.7528,-234.5666 929.569,-224.0225 951.9365,-224.0225 967.7528,-234.5666"/>
<polygon fill="none" stroke="#000000" points="971.7528,-232.4259 971.7528,-251.6191 953.1476,-264.0225 928.3579,-264.0225 909.7528,-251.6191 909.7528,-232.4259 928.3579,-220.0225 953.1476,-220.0225 971.7528,-232.4259"/>
<text text-anchor="middle" x="940.7528" y="-238.9225" font-family="Times,serif" font-size="12.00" fill="#000000">xxx</text>
</g>
<!-- node137&#45;&gt;node14 -->
<g id="edge16" class="edge">
<title>node137&#45;&gt;node14</title>
<path fill="none" stroke="#000000" stroke-dasharray="1,5" d="M708.6657,-316.9705C756.2764,-310.0767 836.5614,-295.3554 900.7528,-268.0449 903.976,-266.6736 907.2257,-265.0454 910.4051,-263.2826"/>
<polygon fill="#000000" stroke="#000000" points="912.3296,-266.2096 919.0993,-258.0596 908.7248,-260.2091 912.3296,-266.2096"/>
</g>
<!-- node4 -->
<g id="node4" class="node">
<title>node4</title>
<polygon fill="none" stroke="#000000" points="601.9128,-95.5623 526.7528,-108 451.5927,-95.5623 480.3013,-75.4377 573.2042,-75.4377 601.9128,-95.5623"/>
<text text-anchor="middle" x="526.7528" y="-86.9" font-family="Times,serif" font-size="12.00" fill="#000000">Threads::Threads</text>
</g>
<!-- node3&#45;&gt;node4 -->
<g id="edge3" class="edge">
<title>node3&#45;&gt;node4</title>
<path fill="none" stroke="#000000" d="M528.9957,-143.8314C528.67,-136.0125 528.2816,-126.6923 527.9204,-118.0221"/>
<polygon fill="#000000" stroke="#000000" points="531.4125,-117.759 527.4992,-107.9134 524.4186,-118.0505 531.4125,-117.759"/>
</g>
<!-- node5 -->
<g id="node5" class="node">
<title>node5</title>
<polygon fill="none" stroke="#000000" points="615.7782,-13.9946 608.2468,-29.2228 577.7528,-36 547.2587,-29.2228 539.7273,-13.9946 560.8298,-1.7826 594.6757,-1.7826 615.7782,-13.9946"/>
<text text-anchor="middle" x="577.7528" y="-14.9" font-family="Times,serif" font-size="12.00" fill="#000000">&#45;pthread</text>
</g>
<!-- node4&#45;&gt;node5 -->
<g id="edge4" class="edge">
<title>node4&#45;&gt;node5</title>
<path fill="none" stroke="#000000" stroke-dasharray="5,2" d="M537.0734,-75.4297C543.8255,-65.8972 552.8102,-53.213 560.6182,-42.19"/>
<polygon fill="#000000" stroke="#000000" points="563.6384,-43.9813 566.5626,-33.7979 557.9263,-39.9351 563.6384,-43.9813"/>
</g>
<!-- node6&#45;&gt;node3 -->
<g id="edge7" class="edge">
<title>node6&#45;&gt;node3</title>
<path fill="none" stroke="#000000" d="M586.1879,-223.8641C575.8356,-212.516 562.397,-197.7846 551.2307,-185.544"/>
<polygon fill="#000000" stroke="#000000" points="553.6014,-182.9495 544.2761,-177.9205 548.4299,-187.6672 553.6014,-182.9495"/>
</g>
<!-- node6&#45;&gt;node4 -->
<g id="edge6" class="edge">
<title>node6&#45;&gt;node4</title>
<path fill="none" stroke="#000000" d="M597.4374,-223.6916C591.2256,-203.515 579.9626,-170.4361 565.7528,-144 560.2759,-133.8107 553.1245,-123.3394 546.4434,-114.3622"/>
<polygon fill="#000000" stroke="#000000" points="549.1087,-112.0857 540.252,-106.2709 543.5495,-116.3396 549.1087,-112.0857"/>
</g>
<!-- node7&#45;&gt;node5 -->
<g id="edge9" class="edge">
<title>node7&#45;&gt;node5</title>
<path fill="none" stroke="#000000" d="M694.0468,-220.2475C678.1229,-209.8442 660.7431,-196.1253 648.7528,-180 618.3902,-139.1668 632.5846,-117.9631 610.7528,-72 606.0153,-62.026 599.9116,-51.5608 594.2445,-42.5273"/>
<polygon fill="#000000" stroke="#000000" points="597.1415,-40.5612 588.7897,-34.0421 591.2532,-44.3466 597.1415,-40.5612"/>
</g>
<!-- node8 -->
<g id="node8" class="node">
<title>node8</title>
<polygon fill="none" stroke="#000000" points="770.0625,-162 741.9077,-180 685.5979,-180 657.443,-162 685.5979,-144 741.9077,-144 770.0625,-162"/>
<text text-anchor="middle" x="713.7528" y="-158.9" font-family="Times,serif" font-size="12.00" fill="#000000">driver_level2</text>
</g>
<!-- node7&#45;&gt;node8 -->
<g id="edge10" class="edge">
<title>node7&#45;&gt;node8</title>
<path fill="none" stroke="#000000" d="M727.204,-215.8201C725.1306,-207.5242 722.8316,-198.3256 720.7294,-189.9142"/>
<polygon fill="#000000" stroke="#000000" points="724.1114,-189.0112 718.2911,-180.1583 717.3203,-190.7086 724.1114,-189.0112"/>
</g>
<!-- node9 -->
<g id="node9" class="node">
<title>node9</title>
<polygon fill="none" stroke="#000000" points="900.0625,-162 871.9077,-180 815.5979,-180 787.443,-162 815.5979,-144 871.9077,-144 900.0625,-162"/>
<text text-anchor="middle" x="843.7528" y="-158.9" font-family="Times,serif" font-size="12.00" fill="#000000">driver_level3</text>
</g>
<!-- node7&#45;&gt;node9 -->
<g id="edge11" class="edge">
<title>node7&#45;&gt;node9</title>
<path fill="none" stroke="#000000" d="M767.0549,-217.7959C780.8795,-207.7389 796.8822,-196.0973 810.6822,-186.0581"/>
<polygon fill="#000000" stroke="#000000" points="812.9233,-188.7559 818.9509,-180.0428 808.8053,-183.0953 812.9233,-188.7559"/>
</g>
<!-- node10 -->
<g id="node10" class="node">
<title>node10</title>
<polygon fill="none" stroke="#000000" points="1030.0625,-162 1001.9077,-180 945.5979,-180 917.443,-162 945.5979,-144 1001.9077,-144 1030.0625,-162"/>
<text text-anchor="middle" x="973.7528" y="-158.9" font-family="Times,serif" font-size="12.00" fill="#000000">driver_others</text>
</g>
<!-- node7&#45;&gt;node10 -->
<g id="edge12" class="edge">
<title>node7&#45;&gt;node10</title>
<path fill="none" stroke="#000000" d="M785.0975,-224.6226C793.6619,-221.734 802.4562,-218.7762 810.7528,-216 849.8233,-202.9263 894.2144,-188.2304 926.7944,-177.4741"/>
<polygon fill="#000000" stroke="#000000" points="928.108,-180.7263 936.5073,-174.2686 925.9142,-174.079 928.108,-180.7263"/>
</g>
<!-- node11 -->
<g id="node11" class="node">
<title>node11</title>
<polygon fill="none" stroke="#000000" points="1129.2861,-162 1109.0194,-180 1068.4861,-180 1048.2194,-162 1068.4861,-144 1109.0194,-144 1129.2861,-162"/>
<text text-anchor="middle" x="1088.7528" y="-158.9" font-family="Times,serif" font-size="12.00" fill="#000000">interface</text>
</g>
<!-- node7&#45;&gt;node11 -->
<g id="edge13" class="edge">
<title>node7&#45;&gt;node11</title>
<path fill="none" stroke="#000000" d="M783.0933,-223.9741C792.2109,-221.0325 801.7093,-218.2251 810.7528,-216 910.3705,-191.4896 939.3807,-205.4881 1038.7528,-180 1042.8245,-178.9556 1047.0307,-177.7128 1051.1945,-176.3753"/>
<polygon fill="#000000" stroke="#000000" points="1052.4059,-179.6604 1060.75,-173.1314 1050.1556,-173.0319 1052.4059,-179.6604"/>
</g>
<!-- node12 -->
<g id="node12" class="node">
<title>node12</title>
<polygon fill="none" stroke="#000000" points="1212.6493,-162 1196.201,-180 1163.3045,-180 1146.8562,-162 1163.3045,-144 1196.201,-144 1212.6493,-162"/>
<text text-anchor="middle" x="1179.7528" y="-158.9" font-family="Times,serif" font-size="12.00" fill="#000000">kernel</text>
</g>
<!-- node7&#45;&gt;node12 -->
<g id="edge14" class="edge">
<title>node7&#45;&gt;node12</title>
<path fill="none" stroke="#000000" d="M782.596,-223.752C791.848,-220.7963 801.5215,-218.0412 810.7528,-216 953.9473,-184.3379 997.0854,-217.9148 1138.7528,-180 1141.7355,-179.2017 1144.7796,-178.2179 1147.7942,-177.1252"/>
<polygon fill="#000000" stroke="#000000" points="1149.2268,-180.3219 1157.212,-173.3587 1146.6273,-173.8224 1149.2268,-180.3219"/>
</g>
</g>
</svg>
